<svg width="128" height="93" viewBox="0 0 128 93" fill="none" xmlns="http://www.w3.org/2000/svg">
<path d="M13.9111 23.5664C13.4098 25.2298 12.9883 26.7679 12.6465 28.1807C12.3275 29.5934 12.0085 30.7669 11.6895 31.7012C11.1882 33.0456 10.6185 33.7178 9.98047 33.7178C9.63867 33.7178 9.2513 33.5583 8.81836 33.2393C7.77018 32.1227 6.28906 29.6504 4.375 25.8223C2.50651 22.0853 1.57227 19.7497 1.57227 18.8154C1.57227 18.4053 1.69759 18.1546 1.94824 18.0635C2.19889 17.9495 2.48372 17.9382 2.80273 18.0293C3.57747 18.2572 4.12435 18.6104 4.44336 19.0889C4.60286 19.3167 4.79655 19.7155 5.02441 20.2852L5.87891 22.4043C6.83594 24.7969 7.78158 26.9844 8.71582 28.9668C9.21712 28.1921 9.69564 27.1895 10.1514 25.959L11.2109 23.0195C12.1224 20.4447 12.9427 19.1344 13.6719 19.0889C14.2415 18.7243 15.9505 20.7409 18.7988 25.1387C20.0065 27.0072 20.7585 28.1237 21.0547 28.4883C21.2598 28.4883 21.499 27.8047 21.7725 26.4375C22.0687 25.0703 22.3193 23.9196 22.5244 22.9854C22.7523 22.0283 23.0257 21.1396 23.3447 20.3193C24.0967 18.4053 24.9626 17.4482 25.9424 17.4482C26.2614 17.4482 26.4779 17.5622 26.5918 17.79C26.7285 17.9951 26.7969 18.166 26.7969 18.3027C26.7969 18.4395 26.7969 18.542 26.7969 18.6104C26.5234 19.3851 26.2386 20.2738 25.9424 21.2764C25.6462 22.2562 25.3271 23.2702 24.9854 24.3184C24.6663 25.3438 24.3359 26.3691 23.9941 27.3945C23.6751 28.3971 23.3561 29.3086 23.0371 30.1289C22.2852 31.9062 21.6585 32.8633 21.1572 33C20.7699 33.1823 20.1432 32.738 19.2773 31.667C18.89 31.1657 18.4798 30.5732 18.0469 29.8896C17.6139 29.2061 17.1582 28.4997 16.6797 27.7705C15.5176 25.9476 14.5947 24.5462 13.9111 23.5664ZM36.4355 45.8857C35.957 46.9567 35.3874 47.4922 34.7266 47.4922C34.4076 47.4922 34.1683 47.3441 34.0088 47.0479C33.8721 46.7744 33.8721 46.444 34.0088 46.0566C34.5101 43.9375 35.2279 41.5221 36.1621 38.8105C37.1191 36.099 37.7572 34.276 38.0762 33.3418C37.2786 32.5443 36.0254 30.9492 34.3164 28.5566C30.8073 23.6348 29.0527 20.9346 29.0527 20.4561C29.0527 20.4333 29.0641 20.4105 29.0869 20.3877L30.3857 19.0889C32.1859 20.7523 34.5329 23.5778 37.4268 27.5654C38.1559 28.568 38.737 29.4111 39.1699 30.0947C39.6484 29.1377 40.0244 28.3174 40.2979 27.6338C40.5713 26.9274 40.7878 26.3691 40.9473 25.959C41.1296 25.526 41.3688 24.9564 41.665 24.25C42.4398 22.3587 43.5107 19.9548 44.8779 17.0381C45.083 16.9469 45.2995 16.9014 45.5273 16.9014C46.097 16.9014 46.5072 17.0495 46.7578 17.3457C46.849 17.4596 46.8945 17.5964 46.8945 17.7559C46.8945 17.8926 46.8717 18.0293 46.8262 18.166L36.4355 45.8857ZM61.7627 25.5146C61.7627 22.8031 61.6146 20.8092 61.3184 19.5332C61.5007 19.1914 61.2272 19.0205 60.498 19.0205C59.7233 19.0205 58.7207 19.2142 57.4902 19.6016C56.2598 19.9889 55.2572 20.3763 54.4824 20.7637C52.6367 21.6523 51.6113 22.5182 51.4062 23.3613V32.6582H49.1162C48.82 31.8835 48.6719 29.7074 48.6719 26.1299C48.6719 22.9398 48.7288 20.5928 48.8428 19.0889C48.9795 17.585 49.082 16.7305 49.1504 16.5254C49.7428 16.138 50.2214 15.9443 50.5859 15.9443C51.1556 15.9443 51.4404 16.6165 51.4404 17.9609C51.4404 18.485 51.4062 18.9977 51.3379 19.499C51.2923 19.9775 51.2695 20.3079 51.2695 20.4902C54.9609 17.7786 57.8206 16.4229 59.8486 16.4229C62.1501 16.4229 63.4603 18.2799 63.7793 21.9941C63.916 23.293 63.9844 25.0931 63.9844 27.3945L63.9502 30.0947C63.9502 31.0973 63.973 32.0658 64.0186 33C63.7907 33.1367 63.6084 33.2051 63.4717 33.2051C63.4033 33.1823 63.2552 33.1481 63.0273 33.1025C62.7995 33.057 62.5033 33.0228 62.1387 33C61.9108 32.0885 61.7855 31.1657 61.7627 30.2314C61.7399 29.2744 61.7285 28.3971 61.7285 27.5996L61.7627 25.5146ZM79.3652 27.3262C77.6562 30.015 75.3776 31.6784 72.5293 32.3164C71.8685 32.4531 71.2646 32.5215 70.7178 32.5215C70.1937 32.5215 69.7493 32.5215 69.3848 32.5215C69.043 32.4987 68.6556 32.4417 68.2227 32.3506C67.7897 32.2594 67.391 32.1113 67.0264 31.9062C66.1833 31.4277 65.7617 30.7555 65.7617 29.8896C65.6706 29.4795 65.625 29.0238 65.625 28.5225C65.625 27.9984 65.7389 27.3148 65.9668 26.4717C66.1947 25.6286 66.6048 24.7171 67.1973 23.7373C67.8125 22.7575 68.5531 21.8574 69.4189 21.0371C71.2191 19.3053 73.1673 18.1888 75.2637 17.6875C75.8789 17.5508 76.4372 17.4824 76.9385 17.4824C77.4626 17.4824 77.9297 17.5166 78.3398 17.585C79.6615 17.585 80.5501 18.485 81.0059 20.2852C81.3021 21.4245 81.473 23.0195 81.5186 25.0703C81.5869 27.0983 81.6439 28.6706 81.6895 29.7871C81.7578 30.8809 81.9059 31.8835 82.1338 32.7949H80.1172C80.026 32.1797 79.9577 31.6328 79.9121 31.1543C79.8665 30.6758 79.821 30.2314 79.7754 29.8213C79.6615 28.8643 79.5247 28.0326 79.3652 27.3262ZM79.2285 22.0283C79.2285 20.7067 78.5791 20.0459 77.2803 20.0459C77.1208 20.0231 76.9613 20.0117 76.8018 20.0117C75.1383 20.0117 73.3838 20.8092 71.5381 22.4043C70.6722 23.1335 69.9316 23.9538 69.3164 24.8652C68.4049 26.1641 67.9492 27.3262 67.9492 28.3516C67.9492 29.696 68.724 30.4935 70.2734 30.7441C72.3242 30.6986 74.2839 29.7643 76.1523 27.9414C76.9499 27.1439 77.6107 26.278 78.1348 25.3438C78.8639 24.0905 79.2285 22.9854 79.2285 22.0283ZM88.7305 39.8359C88.7305 43.6413 87.7279 45.5439 85.7227 45.5439C85.5176 45.5439 85.2555 45.5326 84.9365 45.5098C84.6403 45.5098 84.1846 45.4642 83.5693 45.373C82.9769 45.3047 82.373 45.168 81.7578 44.9629C80.2767 44.4616 79.3311 43.7324 78.9209 42.7754C78.9209 42.707 78.9779 42.5475 79.0918 42.2969C79.2969 41.8411 79.3994 41.5791 79.3994 41.5107C80.1514 42.0804 80.9603 42.6159 81.8262 43.1172C82.6921 43.6185 83.6149 43.8691 84.5947 43.8691C85.2555 43.8691 85.7796 43.3906 86.167 42.4336C86.5316 41.6133 86.7139 40.793 86.7139 39.9727C86.7139 37.7624 86.5544 34.8913 86.2354 31.3594C85.7796 26.0501 85.5518 22.6777 85.5518 21.2422C85.5518 19.7839 85.5745 18.599 85.6201 17.6875C85.5518 17.1406 85.8024 16.7305 86.3721 16.457C86.805 16.252 87.2835 16.1494 87.8076 16.1494C87.6025 17.5622 87.5 18.6787 87.5 19.499C87.5 20.3193 87.5 21.1738 87.5 22.0625C87.5228 22.9284 87.5911 24.2044 87.7051 25.8906C87.8418 27.5768 87.9899 29.263 88.1494 30.9492C88.5368 34.6178 88.7305 37.5801 88.7305 39.8359ZM86.5771 8.83496C86.9417 9.08561 87.124 9.48438 87.124 10.0312C87.124 10.5781 86.9189 10.9085 86.5088 11.0225C86.486 11.0225 86.3949 11.0225 86.2354 11.0225C86.0986 11.0225 85.8594 10.8743 85.5176 10.5781C85.5176 9.84896 85.6885 9.32487 86.0303 9.00586C86.167 8.89193 86.3493 8.83496 86.5771 8.83496ZM92.7979 32.4531C91.8636 32.8405 91.237 33.0342 90.918 33.0342C90.6217 33.0342 90.4167 33 90.3027 32.9316C90.1888 32.8633 90.0635 32.7038 89.9268 32.4531C89.9268 31.7012 89.9495 30.7555 89.9951 29.6162C90.0635 28.4769 90.1204 27.2578 90.166 25.959C90.2116 24.6602 90.2344 23.3499 90.2344 22.0283C90.2344 20.7067 90.166 19.499 90.0293 18.4053C90.0293 17.6761 90.5192 17.3115 91.499 17.3115C91.7269 17.3115 91.8978 17.7217 92.0117 18.542C92.1484 19.3623 92.2396 20.0003 92.2852 20.4561C92.3535 20.9118 92.4105 21.2422 92.4561 21.4473C93.0485 20.3763 94.222 19.5332 95.9766 18.918C96.9108 18.6217 97.7881 18.4736 98.6084 18.4736C99.4287 18.4736 100.146 18.5762 100.762 18.7812C101.4 18.9635 101.935 19.3167 102.368 19.8408C102.824 20.3421 103.052 21.0143 103.052 21.8574C103.644 20.7409 104.977 19.7383 107.051 18.8496C108.942 18.0065 110.64 17.585 112.144 17.585C114.308 17.585 115.368 18.4053 115.322 20.0459L116.04 32.7607C116.04 32.8747 115.71 32.9544 115.049 33C113.773 33.0911 113.135 32.9772 113.135 32.6582C113.112 32.2025 113.101 31.7467 113.101 31.291L113.271 25.7881C113.271 23.2132 113.021 21.1738 112.52 19.6699C111.016 19.7839 109.854 20.0345 109.033 20.4219C108.236 20.7865 107.529 21.2536 106.914 21.8232C106.299 22.3701 105.752 23.1107 105.273 24.0449C104.202 26.1413 103.667 28.9212 103.667 32.3848C103.53 32.8633 103.086 33.1025 102.334 33.1025C101.833 33.1025 101.423 33.0228 101.104 32.8633C100.785 32.681 100.659 32.5215 100.728 32.3848C101.16 29.9694 101.377 28.0895 101.377 26.7451C101.377 25.6742 101.263 24.6602 101.035 23.7031C100.83 22.7233 100.568 21.6068 100.249 20.3535C96.9678 20.3535 94.7575 21.6637 93.6182 24.2842C93.1169 25.4463 92.832 26.54 92.7637 27.5654C92.7181 28.568 92.6953 29.4339 92.6953 30.1631C92.6953 30.8695 92.7295 31.6328 92.7979 32.4531ZM120.278 16.9355C120.575 21.1966 120.825 26.1299 121.03 31.7354C120.894 32.4417 120.347 32.7949 119.39 32.7949C119.139 32.7949 118.877 32.7493 118.604 32.6582C118.353 32.5443 118.193 32.3962 118.125 32.2139V16.9355H120.278ZM117.1 12.2871C117.1 11.4896 117.567 11.0908 118.501 11.0908C119.116 11.0908 119.618 11.2275 120.005 11.501C120.073 11.7516 120.107 12.0023 120.107 12.2529C120.107 12.4808 120.016 12.7087 119.834 12.9365C119.652 13.1644 119.378 13.2783 119.014 13.2783C118.649 13.2783 118.285 13.1986 117.92 13.0391C117.555 12.8568 117.282 12.6061 117.1 12.2871ZM127.49 39.8359C127.49 43.6413 126.488 45.5439 124.482 45.5439C124.277 45.5439 124.015 45.5326 123.696 45.5098C123.4 45.5098 122.944 45.4642 122.329 45.373C121.737 45.3047 121.133 45.168 120.518 44.9629C119.036 44.4616 118.091 43.7324 117.681 42.7754C117.681 42.707 117.738 42.5475 117.852 42.2969C118.057 41.8411 118.159 41.5791 118.159 41.5107C118.911 42.0804 119.72 42.6159 120.586 43.1172C121.452 43.6185 122.375 43.8691 123.354 43.8691C124.015 43.8691 124.539 43.3906 124.927 42.4336C125.291 41.6133 125.474 40.793 125.474 39.9727C125.474 37.7624 125.314 34.8913 124.995 31.3594C124.539 26.0501 124.312 22.6777 124.312 21.2422C124.312 19.7839 124.334 18.599 124.38 17.6875C124.312 17.1406 124.562 16.7305 125.132 16.457C125.565 16.252 126.043 16.1494 126.567 16.1494C126.362 17.5622 126.26 18.6787 126.26 19.499C126.26 20.3193 126.26 21.1738 126.26 22.0625C126.283 22.9284 126.351 24.2044 126.465 25.8906C126.602 27.5768 126.75 29.263 126.909 30.9492C127.297 34.6178 127.49 37.5801 127.49 39.8359ZM125.337 8.83496C125.701 9.08561 125.884 9.48438 125.884 10.0312C125.884 10.5781 125.679 10.9085 125.269 11.0225C125.246 11.0225 125.155 11.0225 124.995 11.0225C124.858 11.0225 124.619 10.8743 124.277 10.5781C124.277 9.84896 124.448 9.32487 124.79 9.00586C124.927 8.89193 125.109 8.83496 125.337 8.83496ZM59.8145 81.4531C58.8802 81.8405 58.2536 82.0342 57.9346 82.0342C57.6383 82.0342 57.4333 82 57.3193 81.9316C57.2054 81.8633 57.0801 81.7038 56.9434 81.4531C56.9434 80.7012 56.9661 79.7555 57.0117 78.6162C57.0801 77.4769 57.137 76.2578 57.1826 74.959C57.2282 73.6602 57.251 72.3499 57.251 71.0283C57.251 69.7067 57.1826 68.499 57.0459 67.4053C57.0459 66.6761 57.5358 66.3115 58.5156 66.3115C58.7435 66.3115 58.9144 66.7217 59.0283 67.542C59.165 68.3623 59.2562 69.0003 59.3018 69.4561C59.3701 69.9118 59.4271 70.2422 59.4727 70.4473C60.0651 69.3763 61.2386 68.5332 62.9932 67.918C63.9274 67.6217 64.8047 67.4736 65.625 67.4736C66.4453 67.4736 67.1631 67.5762 67.7783 67.7812C68.4163 67.9635 68.9518 68.3167 69.3848 68.8408C69.8405 69.3421 70.0684 70.0143 70.0684 70.8574C70.6608 69.7409 71.9938 68.7383 74.0674 67.8496C75.9587 67.0065 77.6562 66.585 79.1602 66.585C81.3249 66.585 82.3844 67.4053 82.3389 69.0459L83.0566 81.7607C83.0566 81.8747 82.7262 81.9544 82.0654 82C80.7894 82.0911 80.1514 81.9772 80.1514 81.6582C80.1286 81.2025 80.1172 80.7467 80.1172 80.291L80.2881 74.7881C80.2881 72.2132 80.0374 70.1738 79.5361 68.6699C78.0322 68.7839 76.8701 69.0345 76.0498 69.4219C75.2523 69.7865 74.5459 70.2536 73.9307 70.8232C73.3154 71.3701 72.7686 72.1107 72.29 73.0449C71.2191 75.1413 70.6836 77.9212 70.6836 81.3848C70.5469 81.8633 70.1025 82.1025 69.3506 82.1025C68.8493 82.1025 68.4391 82.0228 68.1201 81.8633C67.8011 81.681 67.6758 81.5215 67.7441 81.3848C68.1771 78.9694 68.3936 77.0895 68.3936 75.7451C68.3936 74.6742 68.2796 73.6602 68.0518 72.7031C67.8467 71.7233 67.5846 70.6068 67.2656 69.3535C63.9844 69.3535 61.7741 70.6637 60.6348 73.2842C60.1335 74.4463 59.8486 75.54 59.7803 76.5654C59.7347 77.568 59.7119 78.4339 59.7119 79.1631C59.7119 79.8695 59.7461 80.6328 59.8145 81.4531ZM97.5488 74.5146C97.5488 71.8031 97.4007 69.8092 97.1045 68.5332C97.2868 68.1914 97.0133 68.0205 96.2842 68.0205C95.5094 68.0205 94.5068 68.2142 93.2764 68.6016C92.0459 68.9889 91.0433 69.3763 90.2686 69.7637C88.4229 70.6523 87.3975 71.5182 87.1924 72.3613V81.6582H84.9023C84.6061 80.8835 84.458 78.7074 84.458 75.1299C84.458 71.9398 84.515 69.5928 84.6289 68.0889C84.7656 66.585 84.8682 65.7305 84.9365 65.5254C85.529 65.138 86.0075 64.9443 86.3721 64.9443C86.9417 64.9443 87.2266 65.6165 87.2266 66.9609C87.2266 67.485 87.1924 67.9977 87.124 68.499C87.0785 68.9775 87.0557 69.3079 87.0557 69.4902C90.7471 66.7786 93.6068 65.4229 95.6348 65.4229C97.9362 65.4229 99.2464 67.2799 99.5654 70.9941C99.7021 72.293 99.7705 74.0931 99.7705 76.3945L99.7363 79.0947C99.7363 80.0973 99.7591 81.0658 99.8047 82C99.5768 82.1367 99.3945 82.2051 99.2578 82.2051C99.1895 82.1823 99.0413 82.1481 98.8135 82.1025C98.5856 82.057 98.2894 82.0228 97.9248 82C97.6969 81.0885 97.5716 80.1657 97.5488 79.2314C97.526 78.2744 97.5146 77.3971 97.5146 76.5996L97.5488 74.5146ZM104.795 65.9355C105.091 70.1966 105.342 75.1299 105.547 80.7354C105.41 81.4417 104.863 81.7949 103.906 81.7949C103.656 81.7949 103.394 81.7493 103.12 81.6582C102.869 81.5443 102.71 81.3962 102.642 81.2139V65.9355H104.795ZM101.616 61.2871C101.616 60.4896 102.083 60.0908 103.018 60.0908C103.633 60.0908 104.134 60.2275 104.521 60.501C104.59 60.7516 104.624 61.0023 104.624 61.2529C104.624 61.4808 104.533 61.7087 104.351 61.9365C104.168 62.1644 103.895 62.2783 103.53 62.2783C103.166 62.2783 102.801 62.1986 102.437 62.0391C102.072 61.8568 101.799 61.6061 101.616 61.2871ZM113.989 79.6074C115.994 79.6074 119.014 78.696 123.047 76.873C123.298 76.873 123.503 76.9642 123.662 77.1465C123.822 77.306 123.901 77.4997 123.901 77.7275C122.99 79.277 121.247 80.4847 118.672 81.3506C116.097 82.2165 113.693 82.3646 111.46 81.7949C108.931 81.1341 107.393 79.71 106.846 77.5225C106.8 77.0895 106.777 76.5085 106.777 75.7793C106.777 75.0501 106.96 74.0931 107.324 72.9082C107.712 71.7005 108.361 70.5612 109.272 69.4902C110.184 68.4193 111.255 67.5762 112.485 66.9609C113.716 66.3457 115.026 66.0381 116.416 66.0381C117.738 66.0381 119.219 66.4938 120.859 67.4053C121.634 67.8382 122.249 68.3281 122.705 68.875C123.161 69.4219 123.389 69.9801 123.389 70.5498C123.389 70.7093 123.377 70.8688 123.354 71.0283C123.309 72.4183 122.637 73.2956 121.338 73.6602C120.768 73.8197 120.107 73.8994 119.355 73.8994L114.434 73.6943C112.793 73.6943 111.54 74.0475 110.674 74.7539C110.173 75.1413 109.819 75.7223 109.614 76.4971C110.184 78.5706 111.642 79.6074 113.989 79.6074ZM120.073 69.0459C119.572 68.6813 119.048 68.4193 118.501 68.2598C117.954 68.1003 117.498 68.0205 117.134 68.0205C116.769 68.0205 116.177 68.1458 115.356 68.3965C114.536 68.6243 113.807 68.8864 113.169 69.1826C111.597 69.9118 110.811 70.6751 110.811 71.4727C112.633 71.6322 114.001 71.7119 114.912 71.7119C117.441 71.7119 119.15 71.4954 120.039 71.0625C120.586 70.8346 120.859 70.5498 120.859 70.208C120.859 69.7979 120.597 69.4105 120.073 69.0459Z" fill="black"/>
</svg>
